<?xml version="1.0" encoding="UTF-8" standalone="no"?>
<svg
   width="190mm"
   height="81mm"
   viewBox="0 0 190 81"
   version="1.1"
   id="svg1"
   xml:space="preserve"
   inkscape:version="1.3.2 (091e20e, 2023-11-25, custom)"
   sodipodi:docname="brumbrum.svg"
   xmlns:inkscape="http://www.inkscape.org/namespaces/inkscape"
   xmlns:sodipodi="http://sodipodi.sourceforge.net/DTD/sodipodi-0.dtd"
   xmlns="http://www.w3.org/2000/svg"
   xmlns:svg="http://www.w3.org/2000/svg"><sodipodi:namedview
     id="namedview1"
     pagecolor="#505050"
     bordercolor="#eeeeee"
     borderopacity="1"
     inkscape:showpageshadow="0"
     inkscape:pageopacity="0"
     inkscape:pagecheckerboard="0"
     inkscape:deskcolor="#505050"
     inkscape:document-units="mm"
     showguides="true"
     inkscape:zoom="0.45344417"
     inkscape:cx="401.37246"
     inkscape:cy="206.19959"
     inkscape:window-width="1366"
     inkscape:window-height="705"
     inkscape:window-x="-8"
     inkscape:window-y="-8"
     inkscape:window-maximized="1"
     inkscape:current-layer="layer1"
     inkscape:lockguides="false" /><defs
     id="defs1" /><g
     inkscape:label="Livello 1"
     inkscape:groupmode="layer"
     id="layer1"
     transform="matrix(0.51702594,0,0,0.51702594,35.311205,21.101574)"><path
       style="fill:#4892c1;fill-opacity:1;stroke:#000000;stroke-width:0.798014;paint-order:markers fill stroke"
       d="M 11.151424,81.801348 C 3.5159522,80.688419 -1.7236558,76.275979 -3.8462036,69.171387 l -0.5084965,-1.70205 -3.6257868,-1.131418 C -9.9746697,65.715636 -19.012854,62.902156 -28.065341,60.085734 L -44.524412,54.964973 V 30.300319 c 0,-20.565814 0.09045,-24.6646541 0.544277,-24.6646541 0.570308,0 1.051754,-2.3964316 1.051754,-5.23519163 0,-1.26683003 -0.155748,-1.56591697 -0.897768,-1.72398867 -2.247007,-0.4786825 -5.306465,-0.7264111 -10.473954,-0.8480929 -7.427629,-0.1749028 -11.859902,-0.5496916 -12.468992,-1.0543654 -0.804787,-0.6668189 -0.575817,-1.7693033 0.516039,-2.484712 0.647718,-0.4244022 1.910626,-0.6794334 3.491318,-0.7050409 1.362086,-0.022056 5.136467,-0.084217 8.387514,-0.1381137 3.251047,-0.053897 6.019163,-0.20616 6.151369,-0.3383683 0.132207,-0.1322082 3.052007,-0.2403749 6.488445,-0.2403749 6.148704,0 6.262974,0.015864 7.185191,0.9975212 0.915015,0.9739863 1.071955,0.9975162 6.653177,0.9975162 4.424103,0 5.716065,0.1172398 5.716065,0.5187108 0,1.2220578 -0.978966,1.4763316 -5.684045,1.4763316 -4.486177,0 -4.776215,0.049792 -5.705814,0.9793801 -0.920757,0.920755 -0.979383,1.24129924 -0.979383,5.3549031 v 4.375518 l 1.097271,0.220064 c 0.6035,0.1210369 14.293412,2.0395435 30.4220275,4.2633445 19.2762475,2.657793 30.0291065,4.306806 31.3802915,4.812345 2.85378,1.067737 6.617138,3.577852 7.762721,5.177641 0.527769,0.737025 1.677794,2.778897 2.555614,4.537494 l 1.596028,3.19745 3.790572,-0.127833 c 3.586306,-0.120945 3.832019,-0.18545 4.559586,-1.197023 0.422954,-0.588057 1.641849,-1.909403 2.70866,-2.936324 5.376637,-5.175594 11.033974,-5.004002 16.629963,0.504413 l 2.147885,2.114273 23.66639,-3.333445 c 25.22523,-3.553007 25.12207,-3.547009 24.82147,-1.443104 -0.0846,0.591987 -1.03066,1.294623 -3.27054,2.428963 -1.73335,0.877815 -3.40174,1.978375 -3.70755,2.445687 -0.51069,0.780415 -0.37107,1.121843 1.71336,4.189582 4.11601,6.057718 4.98746,7.130501 5.79226,7.130501 0.42794,0 1.21986,0.289471 1.75983,0.643268 0.87271,0.57183 3.0758,0.634129 19.83659,0.560981 10.37016,-0.04524 27.83252,0.06927 38.80523,0.254499 l 19.95039,0.336787 2.19837,-1.267398 c 6.04733,-3.486379 12.75832,-4.404078 18.74471,-2.563259 3.54191,1.089138 5.28283,1.931914 8.83666,4.27778 2.15947,1.425465 2.98457,1.747416 4.47829,1.747416 1.00709,0 4.91508,0.718213 8.68443,1.596033 3.76934,0.877815 7.41487,1.596028 8.10119,1.596028 0.6863,0 9.59224,2.411252 19.79096,5.358342 16.539,4.779215 19.01297,5.393739 22.89035,5.685862 3.5408,0.26676 4.42902,0.461385 4.7881,1.04915 0.62652,1.025524 -0.64307,1.871918 -2.80785,1.871918 -1.6708,0 -1.75423,0.06737 -4.91134,3.965869 l -3.21167,3.96586 v 3.280894 3.280893 l -13.83096,-0.264124 c -7.60703,-0.145263 -16.65273,-0.26412 -20.10156,-0.26412 h -6.27058 l -0.28986,-6.18462 -0.28985,-6.184619 h -4.94559 -4.94558 v 1.124602 c 0,0.618531 -0.28936,2.099847 -0.64301,3.291814 -2.26172,7.622919 -8.56192,13.19761 -16.92737,14.978069 -11.63324,2.475961 -23.30275,-4.787664 -27.48011,-17.104854 l -0.70887,-2.090129 -2.35756,-0.09779 c -1.91438,-0.07942 -3.44517,0.262374 -8.14318,1.818164 l -5.78561,1.915963 -0.11015,6.062237 -0.11014,6.062236 h -15.2716 c -10.90455,0 -15.40176,-0.130146 -15.72674,-0.455132 -0.33615,-0.336142 -11.85783,-0.436935 -44.070406,-0.385515 -43.391481,0.06926 -43.674489,0.06453 -55.155407,-0.922449 l -11.540126,-0.992066 -1.41959,1.246417 c -4.125435,3.622184 -13.378622,5.987456 -19.775757,5.055018 z M 98.616341,38.85306 c 0.430871,-0.384046 1.883559,-2.444627 3.228199,-4.579078 2.04418,-3.244883 2.40508,-4.079368 2.20245,-5.092523 -0.32732,-1.636594 -1.18125,-1.788376 -6.830245,-1.214049 -13.402485,1.362617 -25.033527,3.084677 -25.621794,3.793494 -0.270383,0.32579 -0.03168,0.961567 0.770575,2.052475 0.780215,1.060926 1.203973,2.165442 1.289075,3.359953 l 0.126784,1.779482 2.992559,0.227366 c 1.645907,0.125055 7.057511,0.259719 12.025783,0.299256 8.101212,0.06447 9.114045,-1.58e-4 9.816614,-0.626376 z"
       id="path2" /></g></svg>
